<svg xmlns="http://www.w3.org/2000/svg" width="120" height="100" viewBox="0 0 120 100" xmlns:xlink="http://www.w3.org/1999/xlink"><defs><filter id="a" width="200%" height="200%" x="-50%" y="-50%" filterUnits="objectBoundingBox"><feOffset dx="1" dy="4" in="SourceAlpha" result="shadowOffsetOuter1"/><feGaussianBlur stdDeviation="2" in="shadowOffsetOuter1" result="shadowBlurOuter1"/><feColorMatrix values="0 0 0 0 0.0666666667 0 0 0 0 0.0666666667 0 0 0 0 0.0666666667 0 0 0 0.2 0" in="shadowBlurOuter1" result="shadowMatrixOuter1"/><feMerge><feMergeNode in="shadowMatrixOuter1"/><feMergeNode in="SourceGraphic"/></feMerge></filter><path id="b" d="M.472 6.967c2.61-2.34 4.953-4.357 7.563-6.7 3.347 3.123 6.626 6.115 9.84 9.237 9.37 9.106 18.74 18.21 28.11 27.382.334.325.67.586.936.91 3.147 3.448 3.415 8.52.604 11.188-3.012 2.796-8.3 2.276-11.646-1.43-7.362-8.13-14.524-16.456-21.752-24.717C9.642 17.7 5.156 12.43.472 6.967z"/></defs><g fill="none" fill-rule="evenodd" filter="url(#a)" transform="translate(19 11)"><path fill="#767A83" d="M52.958 3.16c1.52 1.447-1.163 1.783-1.9 1.913C43.095 6.44 38.68 9.95 37.607 16.195c-.268 1.756-.335 3.838.402 5.398 1.137 2.732.468 4.358-1.808 5.984-1.606 1.17-2.944 2.602-4.35 3.968-1.54-.78-2.878-1.82-4.417-2.212-3.213-.78-7.162 2.342-6.56 5.594.536 2.797-.802 3.902-2.476 5.333-5.22 4.488-5.22 4.488-10.04-.585-2.41-2.537-4.818-5.138-7.294-7.61-1.406-1.366-1.473-2.406.133-3.772 2.945-2.537 5.422-5.724 10.24-4.878 2.343.39 2.812-1.756 3.28-3.708.402-1.626 1.205-3.382 2.343-4.683 2.274-2.536 5.085-4.552 7.36-7.09 4.017-4.487 8.29-6.757 14.107-7.608C40.68.01 49.304 1.32 49.99 1.638c3.28 1.522 2.575 1.15 2.968 1.522z"/><g transform="translate(33 27)"><mask id="c" fill="#fff"><use xlink:href="#b"/></mask><use fill="#E42C2D" xlink:href="#b"/><path fill="#3C424F" d="M56.563 9.47l28.282 33.706L53.437 69.53 25.155 35.824" mask="url(#c)"/></g></g></svg>