<svg xmlns="http://www.w3.org/2000/svg" width="120" height="100" viewBox="0 0 120 100"><defs><filter id="a" width="200%" height="200%" x="-50%" y="-50%" filterUnits="objectBoundingBox"><feOffset dx="1" dy="4" in="SourceAlpha" result="shadowOffsetOuter1"/><feColorMatrix values="0 0 0 0 0 0 0 0 0 0 0 0 0 0 0 0 0 0 0.1 0" in="shadowOffsetOuter1" result="shadowMatrixOuter1"/><feMerge><feMergeNode in="shadowMatrixOuter1"/><feMergeNode in="SourceGraphic"/></feMerge></filter></defs><g fill="none" fill-rule="evenodd" filter="url(#a)" transform="translate(26 16)"><path fill="#255BC7" d="M62.097.05c-1.99.4-41.597 36.6-41.597 36.6l10.15 9.745s31.447-41.57 32.64-43.16c1.196-1.592.797-3.58-1.193-3.184z"/><path fill="#004089" d="M19.738 37.643s-3.245 1.39-4.82 3.545c-1.7 2.328-1.782 6.37-1.782 6.37l6.322 6.594s3.154-.18 6.078-2.08c2.925-1.898 4.318-4.48 4.318-4.48l-10.116-9.95z"/><path fill="#FFAB00" d="M12.58 48.447s-6.61 0-9.388 4.115C.412 56.678 4.976 60.516 0 65c7.563-2.694 11.09 1.55 14.7-.97 3.61-2.52 4.208-8.81 4.208-8.81l-6.327-6.773z"/></g></svg>