<svg xmlns="http://www.w3.org/2000/svg" width="120" height="100" viewBox="0 0 120 100" xmlns:xlink="http://www.w3.org/1999/xlink"><defs><filter id="a" width="200%" height="200%" x="-50%" y="-50%" filterUnits="objectBoundingBox"><feOffset dx="-7" dy="6" in="SourceAlpha" result="shadowOffsetOuter1"/><feColorMatrix values="0 0 0 0 0 0 0 0 0 0 0 0 0 0 0 0 0 0 0.1 0" in="shadowOffsetOuter1" result="shadowMatrixOuter1"/><feMerge><feMergeNode in="shadowMatrixOuter1"/><feMergeNode in="SourceGraphic"/></feMerge></filter><path id="b" d="M44.782 6.76C42.862 2.57 38.912.003 33 .003c-5.63 0-9.46 2.814-11.482 7.274-.672 1.48-1.094 3.033-1.328 4.58-.14.936-.19 1.686-.19 2.172v49.046c0 .157-.028.543-.116 1.072-.15.897-.416 1.79-.818 2.594-1.07 2.145-2.87 3.346-6.066 3.346-3.196 0-4.995-1.2-6.066-3.346-.402-.805-.67-1.697-.818-2.594-.088-.53-.116-.915-.116-1.072V33.04c0-1.657-1.343-3-3-3s-3 1.343-3 3v30.036c0 .468.05 1.178.197 2.057.24 1.45.677 2.903 1.37 4.29 2.053 4.11 5.88 6.665 11.433 6.665 5.554 0 9.38-2.554 11.434-6.666.692-1.386 1.128-2.84 1.37-4.29.145-.878.196-1.588.196-2.056V14.03c0-.204.03-.66.123-1.275.156-1.037.437-2.068.86-3 1.102-2.43 2.898-3.75 6.017-3.75 3.55 0 5.38 1.186 6.328 3.256.31.676.51 1.427.612 2.2.07.526.084.98.07 1.302l-.01.254V58.07c0 .142 0 .167-.01.71-.05 2.862.075 4.882.662 7.21C42.212 72.173 46.564 76.09 54 76.09c7.663 0 12.267-3.95 14.087-10.23.738-2.545.913-4.678.913-7.788V43.04c0-3.865 3.135-7 6.992-7h5.715c1.657 0 3-1.343 3-3s-1.343-3-3-3h-5.715c-7.17 0-12.992 5.822-12.992 13v15.03c0 2.58-.138 4.264-.675 6.118-1.117 3.852-3.504 5.9-8.325 5.9-4.497 0-6.605-1.896-7.53-5.564-.424-1.68-.52-3.272-.48-5.64.01-.602.01-.62.01-.814V13.11c.085-1.936-.206-4.145-1.218-6.35z"/><linearGradient id="c" x1="24.698%" x2="65.937%" y1="40.909%" y2="40.909%"><stop stop-color="#50B848" offset="0%"/><stop stop-color="#255BC7" offset="100%"/></linearGradient><linearGradient id="e" x1="6.584%" x2="57.582%" y1="36.116%" y2="64.19%"><stop stop-color="#255BC7" offset="0%"/><stop stop-color="#639" offset="100%"/></linearGradient></defs><g fill="none" fill-rule="evenodd" filter="url(#a)" transform="translate(18 9)"><mask id="d" fill="#fff"><use xlink:href="#b"/></mask><use fill="#255BC7" xlink:href="#b"/><rect width="33" height="14" x="-3" y="63" fill="url(#c)" mask="url(#d)" rx="4"/><rect width="8" height="29" x="19" y="38" fill="#255BC7" mask="url(#d)" rx="4"/><rect width="8" height="44" x="-1" y="28" fill="#50B848" mask="url(#d)" rx="4"/><rect width="33" height="23" x="16" y="-6" fill="#255BC7" mask="url(#d)" rx="4"/><rect width="8" height="47" x="39" y="15" fill="#255BC7" mask="url(#d)" rx="4"/><rect width="33" height="19" x="39" y="58" fill="url(#e)" mask="url(#d)" rx="4"/><rect width="37" height="44" x="59" y="16" fill="#639" mask="url(#d)" rx="4"/><path fill="#639" d="M94 32.54L77 43.05V22.027"/></g></svg>