<?xml version="1.0" standalone="no"?>
<!DOCTYPE svg PUBLIC "-//W3C//DTD SVG 20010904//EN"
 "http://www.w3.org/TR/2001/REC-SVG-20010904/DTD/svg10.dtd">
<svg version="1.0" xmlns="http://www.w3.org/2000/svg"
 width="200.000000pt" height="200.000000pt" viewBox="0 0 200.000000 200.000000"
 preserveAspectRatio="xMidYMid meet">
<metadata>
Created by potrace 1.14, written by Peter Selinger 2001-2017
</metadata>
<g transform="translate(0.000000,200.000000) scale(0.100000,-0.100000)"
fill="#000000" stroke="none">
<path d="M988 1993 c-3 -9 -61 -43 -118 -71 -19 -9 -37 -20 -40 -23 -3 -4 -30
-19 -60 -35 -30 -15 -57 -31 -60 -34 -3 -4 -18 -13 -35 -22 -16 -8 -74 -40
-129 -72 -54 -31 -102 -56 -107 -56 -5 0 -9 -4 -9 -10 0 -5 -7 -10 -15 -10 -8
0 -15 -5 -15 -11 0 -5 -4 -8 -9 -4 -5 3 -16 -2 -24 -10 -9 -8 -19 -15 -24 -15
-5 0 -25 -11 -46 -25 -20 -14 -37 -22 -37 -18 0 4 -4 3 -8 -3 -4 -6 -34 -26
-67 -45 l-61 -34 2 -245 c6 -704 7 -740 18 -749 10 -9 203 -121 306 -179 44
-25 242 -140 310 -181 19 -11 44 -25 55 -30 11 -5 58 -31 104 -59 89 -54 91
-54 156 -14 50 32 439 259 480 281 16 9 32 18 35 21 5 6 58 38 130 78 25 14
68 40 97 58 l52 33 -1 494 -1 493 -50 30 c-28 16 -72 41 -97 56 -25 16 -57 33
-72 39 -16 6 -28 15 -28 20 0 5 -5 9 -11 9 -6 0 -30 14 -54 30 -24 17 -47 30
-52 30 -4 0 -43 22 -85 50 -43 27 -78 47 -78 44 0 -3 -7 2 -16 10 -8 9 -22 16
-30 16 -8 0 -14 4 -14 9 0 5 -8 11 -17 14 -24 8 -77 40 -81 50 -2 4 -8 7 -13
7 -5 0 -37 17 -72 39 -69 42 -103 56 -109 44z"/>
</g>
</svg>
