<svg xmlns="http://www.w3.org/2000/svg" width="157" height="59" viewBox="0 0 157 59"><g fill="none" fill-rule="evenodd"><path fill="#50B848" d="M122.862 36.023c-3.096 0-5.115 2.102-5.115 5.597 0 4.318 3.097 5.552 5.3 5.552 2.797 0 4.402-1.874 4.402-1.874l-1.424-1.417c-.756.686-1.628 1.075-2.935 1.075-1.72 0-2.89-1.005-2.89-2.376h7.684s1.33-6.557-5.02-6.557h-.002zm-2.637 4.705c0-1.85 1.4-2.74 2.912-2.74 1.514 0 2.89.913 2.89 2.74h-5.802zm-5.138-4.477v1.19c-.826-.96-1.812-1.44-3.164-1.44-.804 0-1.423.137-1.952.387-.548.275-.916.573-1.213.892-.32.342-.574.845-.71 1.346-.162.504-.208 1.486-.208 2.925 0 1.416.07 2.353.228 2.856.138.503.368.937.69 1.28.297.318.64.638 1.168.936.53.273 1.193.524 1.996.502 1.306 0 2.407-.504 3.164-1.37v.66c0 .8-.275 1.304-.78 1.715-.505.41-1.146.66-2.018.66-.802 0-1.56-.433-2.017-.73l-1.628 1.624c1.055.845 2.317 1.44 3.693 1.44 1.446.022 2.614-.435 3.622-1.212.988-.753 1.584-2.193 1.584-3.724v-9.936h-2.453zm0 5.347c0 .822-.024 1.417-.07 1.713-.07.32-.228.595-.41.823-.185.183-.414.388-.735.55-.345.182-.758.273-1.24.273-1.01 0-1.81-.617-1.972-.8-.206-.228-.343-.503-.412-.843-.07-.32-.093-.892-.093-1.715 0-.845.023-1.53.093-1.85.045-.32.206-.594.39-.8.183-.182.412-.388.756-.57.32-.16.734-.252 1.216-.252s.917.068 1.238.25c.345.184.55.39.734.573.208.204.345.48.414.82.046.297.07.915.07 1.69.02.024.02.094.02.14v-.003zm-12.362-5.574c-2.454 0-4.037 1.234-4.335 1.485l1.49 1.485c.3-.23 1.308-.937 2.868-.937 1.88 0 2.43.754 2.43 1.576v1.053h-3.347c-1.238 0-3.67.32-3.67 3.015 0 1.987 1.147 3.45 3.877 3.45 1.376 0 2.408-.434 3.12-1.302v1.073h2.453v-7.15c0-2.445-1.536-3.748-4.885-3.748zm2.477 7.036c0 2.055-1.47 1.964-2.798 1.964-1.33 0-2.18-.366-2.18-1.28 0-.867.69-1.14 2.134-1.14h2.867c-.024-.025-.024.342-.024.455h.002zm-10.597-2.515c-.985-.114-3.83-.023-3.83-1.3 0-.755 1.193-1.19 2.294-1.19 1.765 0 2.91.71 3.256.938l1.468-1.462c-.436-.342-2.064-1.484-4.725-1.484-2.432 0-4.61 1.255-4.61 3.288 0 3.108 3.76 3.108 5.343 3.268.964.09 1.812.16 1.812 1.095 0 .868-1.33 1.348-2.362 1.348-1.675 0-2.684-.548-3.67-1.44L88 45.184c1.444 1.394 3.302 2.01 5.115 2.01 2.82 0 4.86-1.233 4.86-3.724.025-1.667-1.075-2.65-3.37-2.924z"/><path fill="#3C424F" d="M67.08 46V34.112h1.976V38.8c.325-.347.693-.623 1.104-.828.41-.205.89-.308 1.44-.308.448 0 .857.092 1.228.276.37.184.69.452.96.804.27.352.477.787.624 1.304.147.517.22 1.112.22 1.784 0 .613-.083 1.18-.248 1.704-.165.523-.4.976-.708 1.36-.307.384-.677.684-1.112.9-.435.216-.92.324-1.46.324-.25 0-.48-.025-.688-.076-.208-.05-.397-.12-.568-.212-.17-.09-.33-.2-.476-.332-.147-.13-.287-.276-.42-.436l-.088.552c-.032.14-.087.237-.164.296-.077.06-.183.088-.316.088H67.08zm3.84-6.8c-.41 0-.76.087-1.052.26-.29.173-.56.417-.812.732v3.68c.224.277.468.47.732.58.264.11.55.164.86.164.3 0 .568-.056.808-.168.24-.112.444-.283.612-.512.168-.23.297-.52.388-.868.09-.35.136-.76.136-1.236 0-.48-.04-.887-.116-1.22-.077-.333-.188-.604-.332-.812-.144-.208-.32-.36-.524-.456-.205-.096-.44-.144-.7-.144zm8.404 9.056c-.06.14-.135.244-.228.316-.093.072-.236.108-.428.108h-1.472l1.536-3.288-3.32-7.6h1.728c.16 0 .283.037.368.112.085.075.15.16.192.256l1.752 4.256c.06.14.11.283.152.432.043.15.08.3.112.448.043-.155.09-.304.14-.448.05-.144.105-.29.164-.44l1.648-4.248c.043-.107.113-.195.212-.264.1-.07.21-.104.332-.104h1.584l-4.472 10.464z"/><path fill="#2A3456" d="M50.514 14.88v29.24L25.642 59 .256 44.12 0 14.88 25.642 0"/><path fill="#10BA19" d="M24.616 15.142L13.59 8.615v13.053"/><path fill="#0ADC0A" d="M12.308 22.45L1.282 15.926v13.053"/><path fill="#0DCB11" d="M1.795 15.403L12.82 8.876V21.93"/><path fill="#169828" d="M36.924 50.907L25.898 44.38v13.054"/><path fill="#19872F" d="M26.41 43.858l11.027-6.526v13.053"/><path fill="#13A920" d="M14.103 8.093L25.13 1.566V14.62"/><path fill="#0ADC0A" d="M12.308 36.55L1.282 30.02v13.053M1.795 29.5l11.026-6.527v13.054"/><path fill="#169828" d="M36.924 8.093L25.898 1.566V14.62"/><path fill="#19872F" d="M26.41 15.142l11.027-6.527v13.053"/><path fill="#0DCB11" d="M1.795 43.597L12.82 37.07v13.054"/><path fill="#10BA19" d="M24.616 43.858L13.59 37.332v13.053"/><path fill="#1D7737" d="M49.232 15.403L38.206 8.876V21.93M49.232 43.597L38.206 37.07v13.054"/><path fill="#13A920" d="M14.103 50.907L25.13 44.38v13.054"/><path fill="#2A3456" d="M75.752 22.713c-.846.846-1.947 1.157-3.048 1.157-2.144 0-3.95-1.41-3.95-4.063 0-2.426 1.693-4.118 4.007-4.118.96 0 1.976.366 2.795 1.1l2.173-2.286c-1.524-1.495-3.048-2.06-5.024-2.06-4.035 0-7.394 2.427-7.394 7.363 0 4.937 3.36 7.363 7.394 7.363 2.06 0 3.754-.62 5.362-2.2l-2.314-2.257zm14.76-7.955c-.79-1.382-2.568-2.257-4.43-2.257-4.065-.027-7.254 2.484-7.254 7.28 0 4.88 3.048 7.42 7.168 7.39 1.552-.028 3.725-.818 4.516-2.454l.17 2.03h3.244V12.84h-3.3l-.114 1.918zm-4.12.818c5.418 0 5.418 8.435 0 8.435-2.286 0-4.12-1.58-4.12-4.23 0-2.653 1.834-4.204 4.12-4.204zm10.44-2.736v13.907h3.444v-7.334c0-2.568 1.665-3.527 3.47-3.527 1.13 0 1.78.31 2.485.903l1.553-2.99c-.762-.763-2.145-1.327-3.584-1.327-1.412 0-2.852.254-3.924 1.975l-.254-1.608h-3.19zm19.953 2.877c2.202 0 3.95 1.552 3.95 4.062 0 2.425-1.748 4.09-3.95 4.09-2.173 0-4.035-1.58-4.035-4.09 0-2.427 1.862-4.063 4.035-4.063zm-7.704-8.69v19.72h3.218l.226-1.918c1.072 1.663 2.794 2.228 4.487 2.228 4.093 0 7.17-2.71 7.17-7.28 0-4.794-3.02-7.277-7.084-7.277-1.468 0-3.754.79-4.572 2.23V7.028h-3.443zm24.186 5.53c-4.43 0-7.196 3.273-7.196 7.25 0 4.006 2.71 7.25 7.224 7.25 4.516 0 7.253-3.244 7.253-7.25 0-3.977-2.85-7.25-7.28-7.25zm.028 3.132c2.315 0 3.782 2.03 3.782 4.117 0 2.116-1.27 4.09-3.782 4.09-2.51 0-3.78-1.974-3.78-4.09 0-2.087 1.297-4.118 3.78-4.118zm23.31 11.057V19.44c0-4.372-2.624-6.826-5.897-6.826-1.75 0-3.16.705-4.572 2.087l-.226-1.89h-3.077v13.937h3.415v-7.11c0-2.115 1.44-3.892 3.556-3.892 2.2 0 3.358 1.608 3.358 3.724v7.277h3.443z"/></g></svg>