<svg xmlns="http://www.w3.org/2000/svg" width="120" height="100" viewBox="0 0 120 100" xmlns:xlink="http://www.w3.org/1999/xlink"><defs><filter id="b" width="200%" height="200%" x="-50%" y="-50%" filterUnits="objectBoundingBox"><feOffset dx="1" dy="4" in="SourceAlpha" result="shadowOffsetOuter1"/><feGaussianBlur stdDeviation="2" in="shadowOffsetOuter1" result="shadowBlurOuter1"/><feColorMatrix values="0 0 0 0 0.0666666667 0 0 0 0 0.0666666667 0 0 0 0 0.0666666667 0 0 0 0.2 0" in="shadowBlurOuter1" result="shadowMatrixOuter1"/><feMerge><feMergeNode in="shadowMatrixOuter1"/><feMergeNode in="SourceGraphic"/></feMerge></filter><path id="a" d="M38.226 17.253L.766.613l9.883 39.78 10.19-8.552L35.95 49.85l7.194-6.036-15.11-18.007z"/><mask id="c" width="48.379" height="55.236" x="-3" y="-3"><path fill="#fff" d="M-2.235-2.388h48.38v55.236h-48.38z"/><use xlink:href="#a"/></mask></defs><g fill="none" fill-rule="evenodd"><path fill="#3592FF" d="M55 58.06c8.284 0 15-6.724 15-15.018s-6.716-15.018-15-15.018c-8.284 0-15 6.724-15 15.018S46.716 58.06 55 58.06zm0-5.006c5.523 0 10-4.482 10-10.012S60.523 33.03 55 33.03s-10 4.483-10 10.012c0 5.53 4.477 10.012 10 10.012z"/><path fill="#3592FF" fill-opacity=".3" d="M55 68.072c13.807 0 25-11.206 25-25.03 0-13.824-11.193-25.03-25-25.03s-25 11.206-25 25.03c0 13.824 11.193 25.03 25 25.03zm0-5.006c11.046 0 20-8.965 20-20.024 0-11.06-8.954-20.024-20-20.024s-20 8.965-20 20.024c0 11.06 8.954 20.024 20 20.024z"/><path fill="#3592FF" fill-opacity=".1" d="M55 78.084c19.33 0 35-15.69 35-35.042C90 23.69 74.33 8 55 8S20 23.69 20 43.042c0 19.353 15.67 35.042 35 35.042zm0-5.006c16.57 0 30-13.447 30-30.036 0-16.588-13.43-30.036-30-30.036S25 26.454 25 43.042c0 16.59 13.43 30.036 30 30.036z"/><g filter="url(#b)" transform="translate(56 42)"><use fill="#ED1C5F" xlink:href="#a"/><use stroke="#FFF" stroke-width="6" mask="url(#c)" xlink:href="#a"/></g></g></svg>