<svg xmlns="http://www.w3.org/2000/svg" width="120" height="100" viewBox="0 0 120 100" xmlns:xlink="http://www.w3.org/1999/xlink"><defs><ellipse id="a" cx="49" cy="16.984" rx="16.333" ry="16.353"/><filter id="d" width="200%" height="200%" x="-50%" y="-50%" filterUnits="objectBoundingBox"><feMorphology radius="3" operator="dilate" in="SourceAlpha" result="shadowSpreadOuter1"/><feOffset dx="-2" dy="6" in="shadowSpreadOuter1" result="shadowOffsetOuter1"/><feComposite in="shadowOffsetOuter1" in2="SourceAlpha" operator="out" result="shadowOffsetOuter1"/><feColorMatrix values="0 0 0 0 0 0 0 0 0 0 0 0 0 0 0 0 0 0 0.09 0" in="shadowOffsetOuter1"/></filter><mask id="e" width="38.667" height="38.706" x="-3" y="-3"><path fill="#fff" d="M29.667-2.37h38.667v38.707H29.667z"/><use xlink:href="#a"/></mask><ellipse id="b" cx="81.667" cy="66.043" rx="16.333" ry="16.353"/><filter id="f" width="200%" height="200%" x="-50%" y="-50%" filterUnits="objectBoundingBox"><feMorphology radius="3" operator="dilate" in="SourceAlpha" result="shadowSpreadOuter1"/><feOffset dx="-2" dy="6" in="shadowSpreadOuter1" result="shadowOffsetOuter1"/><feComposite in="shadowOffsetOuter1" in2="SourceAlpha" operator="out" result="shadowOffsetOuter1"/><feColorMatrix values="0 0 0 0 0 0 0 0 0 0 0 0 0 0 0 0 0 0 0.09 0" in="shadowOffsetOuter1"/></filter><mask id="g" width="38.667" height="38.706" x="-3" y="-3"><path fill="#fff" d="M62.333 46.69H101v38.706H62.333z"/><use xlink:href="#b"/></mask><ellipse id="c" cx="16.333" cy="66.043" rx="16.333" ry="16.353"/><filter id="h" width="200%" height="200%" x="-50%" y="-50%" filterUnits="objectBoundingBox"><feMorphology radius="3" operator="dilate" in="SourceAlpha" result="shadowSpreadOuter1"/><feOffset dx="-2" dy="6" in="shadowSpreadOuter1" result="shadowOffsetOuter1"/><feComposite in="shadowOffsetOuter1" in2="SourceAlpha" operator="out" result="shadowOffsetOuter1"/><feColorMatrix values="0 0 0 0 0 0 0 0 0 0 0 0 0 0 0 0 0 0 0.09 0" in="shadowOffsetOuter1"/></filter><mask id="i" width="38.667" height="38.706" x="-3" y="-3"><path fill="#fff" d="M-3 46.69h38.667v38.706H-3z"/><use xlink:href="#c"/></mask></defs><g fill="none" fill-rule="evenodd"><path fill="#C4C6CA" d="M92.37 47.34c-1.843-6.79-5.704-12.75-10.9-17.19-.31.914-.68 1.802-1.1 2.66 4.294 3.88 7.523 8.92 9.198 14.625.72-.07 1.452-.104 2.19-.104.205 0 .41.004.612.01zM76.085 86.462c-5.015 2.85-10.814 4.476-16.992 4.476-5.487 0-10.675-1.284-15.28-3.567.74-.63 1.44-1.304 2.094-2.02 4.016 1.836 8.48 2.86 13.186 2.86 5.46 0 10.6-1.38 15.09-3.81.59.725 1.227 1.413 1.902 2.06zm-37.92-57.486c-5.992 4.587-10.436 11.096-12.415 18.607.948-.143 1.915-.226 2.897-.248C30.497 41.11 34.2 35.68 39.12 31.693c-.375-.88-.694-1.785-.956-2.716z"/><g transform="translate(11 4)"><use fill="#000" filter="url(#d)" xlink:href="#a"/><use fill="#FFAB00" xlink:href="#a"/><use stroke="#FFF" stroke-width="6" mask="url(#e)" xlink:href="#a"/></g><path fill="#C4C6CA" d="M39.945 29.338l.835 10.165-10.376-13.77M91.058 49.067l-9.684-3.204 16.73-4.17M43.303 86.6l7.496-6.916-4.463 16.653"/><g transform="translate(11 4)"><use fill="#000" filter="url(#f)" xlink:href="#b"/><use fill="#ED1C5F" xlink:href="#b"/><use stroke="#FFF" stroke-width="6" mask="url(#g)" xlink:href="#b"/></g><g transform="translate(11 4)"><use fill="#000" filter="url(#h)" xlink:href="#c"/><use fill="#255BC7" xlink:href="#c"/><use stroke="#FFF" stroke-width="6" mask="url(#i)" xlink:href="#c"/></g></g></svg>