<svg xmlns="http://www.w3.org/2000/svg" width="120" height="100" viewBox="0 0 120 100"><defs><filter id="a" width="200%" height="200%" x="-50%" y="-50%" filterUnits="objectBoundingBox"><feOffset dx="1" dy="4" in="SourceAlpha" result="shadowOffsetOuter1"/><feGaussianBlur stdDeviation="2" in="shadowOffsetOuter1" result="shadowBlurOuter1"/><feColorMatrix values="0 0 0 0 0.0666666667 0 0 0 0 0.0666666667 0 0 0 0 0.0666666667 0 0 0 0.2 0" in="shadowBlurOuter1" result="shadowMatrixOuter1"/><feMerge><feMergeNode in="shadowMatrixOuter1"/><feMergeNode in="SourceGraphic"/></feMerge></filter></defs><g fill="none" fill-rule="evenodd" filter="url(#a)" transform="rotate(30 24.152 111.53)"><path stroke="#636872" stroke-width="8" d="M27.246 46.19s-6.575 7.537-5.69 12.16c1.136 5.95 9.733 3.705 9.733 8.983 0 5.44-9.735 12.455-9.735 12.455l-6.82 4.665"/><path fill="#4F5460" d="M4.59 21.3L4.34 39.14c-.115 8.286 6.516 15.003 14.788 15.003h9.12c8.283 0 14.997-6.72 14.997-15v-17.91L4.59 21.3z"/><rect width="48" height="8" y="15" fill="#CED0D3" rx="4"/><rect width="8" height="15" x="6.634" y=".366" fill="#FFAB00" rx="4"/><rect width="8" height="15" x="32.634" y=".366" fill="#FFAB00" rx="4"/></g></svg>