<svg  class="carbon-icon__svg carbon-icon__svg--sage-logo" xmlns="http://www.w3.org/2000/svg" width="57" height="22" viewBox="0 0 57 22"><path fill="#0ADC0A" fill-rule="evenodd" d="M49.68.033c-4.414 0-7.29 2.995-7.29 7.975 0 6.153 4.413 7.912 7.55 7.912 3.988 0 6.274-2.67 6.274-2.67l-2.027-2.02c-1.077.977-2.32 1.53-4.182 1.53-2.45 0-4.118-1.43-4.118-3.384h10.948S58.73.033 49.68.033zm-3.76 6.704c0-2.637 1.995-3.906 4.15-3.906 2.158 0 4.118 1.303 4.118 3.907H45.92zM38.6.357v1.695C37.422.684 36.018 0 34.09 0c-1.146 0-2.027.195-2.78.552-.784.39-1.308.816-1.73 1.27-.46.49-.82 1.206-1.015 1.92-.23.718-.294 2.117-.294 4.168 0 2.017.1 3.352.327 4.068.197.718.524 1.336.982 1.823.423.456.914.912 1.665 1.336.753.39 1.7.747 2.844.715 1.86 0 3.43-.716 4.507-1.952v.944c0 1.14-.392 1.856-1.11 2.442-.72.584-1.635.943-2.877.943-1.143 0-2.22-.618-2.874-1.04l-2.32 2.312c1.502 1.204 3.3 2.052 5.26 2.052 2.06.03 3.726-.62 5.163-1.727 1.406-1.074 2.256-3.125 2.256-5.308V.36h-3.498V.356zm0 7.618c0 1.172-.033 2.02-.097 2.442-.1.457-.326.848-.586 1.173-.263.26-.59.552-1.047.78-.49.263-1.08.393-1.765.393-1.44 0-2.58-.88-2.81-1.14-.295-.325-.49-.717-.588-1.203-.1-.456-.133-1.27-.133-2.442 0-1.205.034-2.182.134-2.638.064-.455.293-.846.554-1.138.262-.26.59-.554 1.08-.815.456-.227 1.044-.357 1.73-.357.688 0 1.308.097 1.766.357.49.26.784.554 1.046.815.295.292.49.684.59 1.172.065.422.1 1.302.1 2.408.03.033.03.133.03.197l-.002-.005zM20.983.033c-3.497 0-5.752 1.758-6.177 2.115l2.124 2.117c.425-.326 1.864-1.335 4.086-1.335 2.68 0 3.464 1.074 3.464 2.246v1.5h-4.77c-1.766 0-5.23.455-5.23 4.296 0 2.833 1.633 4.916 5.522 4.916 1.96 0 3.432-.618 4.446-1.854v1.528h3.496V5.372c0-3.484-2.19-5.34-6.96-5.34zm3.53 10.026c0 2.93-2.094 2.8-3.988 2.8-1.894 0-3.104-.523-3.104-1.825 0-1.236.98-1.626 3.04-1.626h4.085c-.033-.034-.033.487-.033.65zm-15.1-3.583c-1.405-.162-5.458-.033-5.458-1.854 0-1.074 1.7-1.693 3.268-1.693 2.517 0 4.15 1.01 4.64 1.335l2.093-2.084c-.62-.487-2.94-2.114-6.732-2.114C3.76.066.654 1.854.654 4.75c0 4.43 5.36 4.43 7.616 4.658 1.373.13 2.58.227 2.58 1.56 0 1.237-1.894 1.92-3.365 1.92-2.386 0-3.824-.78-5.228-2.05L0 13.087c2.058 1.986 4.706 2.865 7.29 2.865 4.017 0 6.926-1.757 6.926-5.307.033-2.374-1.534-3.773-4.803-4.165z"/></svg>
