<svg class="carbon-icon__svg carbon-icon__svg--sage-logo" width="47" height="26" viewBox="0 0 47 26" fill="none" xmlns="http://www.w3.org/2000/svg">
<path fill-rule="evenodd" clip-rule="evenodd" d="M28.7546 7.24323C31.795 7.24323 34.2968 9.45949 34.2968 12.3784C34.2968 14.1622 33.5707 15.5405 32.575 15.5405C31.9022 15.5405 31.4451 15.0541 31.4451 14.4595C31.4451 13.8378 31.9831 13.5676 31.9831 12.4595C31.9831 10.5946 30.5303 9.35133 28.7815 9.35133C27.0867 9.35133 25.7417 10.6487 25.7417 12.3513C25.7417 14.2703 27.1136 15.0811 29.3734 15.8379C31.9831 16.7027 34.2968 17.7838 34.2968 20.9459C34.2968 23.7838 32.064 26 28.9433 26C25.9298 26 23.4279 23.8378 23.4279 21.027C23.4279 20.0811 23.9659 19.6487 24.5847 19.6487C25.2035 19.6487 25.7147 20.0541 25.7417 20.8379C25.7687 22.5946 27.1676 23.8919 28.9163 23.8919C30.7723 23.8919 31.9831 22.7027 31.9831 21.1622C31.9831 19.4054 30.6381 18.6757 28.3514 17.946C25.6878 17.0811 23.4279 15.8919 23.4279 12.5946C23.4279 9.56758 25.7417 7.24323 28.7546 7.24323ZM5.08473 0C7.9634 0 10.304 2.00001 10.3578 4.78382C10.3847 5.56755 9.8197 5.99998 9.20095 5.99998C8.6091 5.99998 8.09789 5.56755 8.07099 4.83787C8.04409 3.27028 6.72584 2.10811 5.05783 2.10811C3.49742 2.10811 2.31372 3.21624 2.31372 4.72971C2.31372 6.37837 3.41672 7.10811 5.70354 7.94595C8.15175 8.83783 10.3847 9.89192 10.3847 13.027C10.3847 15.7568 8.25935 17.946 5.29998 17.946C2.39442 17.946 0 15.8919 0 13.1081C0 11.3784 0.834005 10.1621 1.64111 10.1621C2.34062 10.1621 2.77107 10.6216 2.77107 11.2433C2.77107 11.7838 2.31372 12.027 2.31372 13C2.31372 14.7297 3.71267 15.8379 5.29998 15.8379C6.96799 15.8379 8.07099 14.6757 8.07099 13.2703C8.07099 11.5406 6.96799 10.8108 4.68117 10C2.12536 9.0811 0 7.97297 0 4.91894C0 2.16215 2.20606 0 5.08473 0ZM16.9063 7.24323C20.0809 7.24323 22.3138 9.62163 22.3138 12.8649V16.8108C22.3138 17.4865 21.7758 17.946 21.157 17.946C20.5113 17.946 19.9733 17.4865 19.9733 16.8108V12.946C19.9733 10.8108 18.7626 9.35133 16.8525 9.35133C15.1575 9.35133 13.8124 10.7838 13.8124 12.6216C13.8124 14.3243 15.1306 15.7838 16.7987 15.7838C17.4175 15.7838 17.6865 15.6216 18.0631 15.6216C18.5743 15.6216 19.1124 16.054 19.1124 16.6757C19.1124 17.5135 18.1169 17.946 16.8256 17.946C13.92 17.946 11.4987 15.5946 11.4987 12.6216C11.4987 9.54056 13.9469 7.24323 16.9063 7.24323ZM40.7647 7.24323C43.7506 7.24323 46.011 9.32431 46.011 11.973C46.011 13 45.2843 13.6216 44.1005 13.6216H41.0067C40.3879 13.6216 39.9307 13.1892 39.9307 12.6216C39.9307 12.0811 40.3879 11.6487 41.0067 11.6487H43.3204C43.5355 11.6487 43.6973 11.5406 43.6973 11.3243C43.6973 10.5405 42.7016 9.32431 40.8456 9.32431C39.1238 9.32431 37.7243 10.8108 37.7243 12.5946C37.7243 14.4054 39.1501 15.8379 40.9258 15.8379C42.9706 15.8379 43.6434 14.6216 44.4773 14.6216C45.1771 14.6216 45.5533 15.0811 45.5533 15.5946C45.5533 16.0811 45.2304 16.5135 44.4234 17.0271C43.6164 17.5406 42.4056 17.946 40.8989 17.946C37.886 17.946 35.4105 15.5676 35.4105 12.5946C35.4105 9.62163 37.8051 7.24323 40.7647 7.24323Z" fill="#00D639"/>
</svg>
